<?xml version="1.0" standalone="no"?>
<!DOCTYPE svg PUBLIC "-//W3C//DTD SVG 20010904//EN"
 "http://www.w3.org/TR/2001/REC-SVG-20010904/DTD/svg10.dtd">
<svg version="1.0" xmlns="http://www.w3.org/2000/svg"
 width="318.000000pt" height="159.000000pt" viewBox="0 0 318.000000 159.000000"
 preserveAspectRatio="xMidYMid meet">

<g transform="translate(0.000000,159.000000) scale(0.100000,-0.100000)"
fill="#000000" stroke="none">
<path d="M875 1333 c3 -16 21 -140 40 -278 48 -344 42 -315 71 -315 l25 0 -26
37 c-23 35 -24 38 -8 45 10 3 29 7 43 7 14 1 58 16 97 35 39 19 74 32 77 29 3
-4 6 -39 6 -80 l0 -73 74 0 74 0 11 78 c25 175 25 169 5 175 -61 17 -74 17
-74 2 0 -8 -4 -15 -10 -15 -5 0 -10 15 -10 33 0 24 -3 28 -10 17 -12 -19 -13
-80 -1 -80 5 0 13 -9 16 -20 3 -11 15 -20 26 -20 12 0 24 -12 33 -32 7 -18 12
-35 10 -37 -2 -2 -39 13 -83 34 l-79 37 -54 -30 c-71 -40 -98 -48 -98 -28 0 8
-18 26 -40 38 -22 13 -40 29 -40 36 0 10 14 6 46 -13 25 -15 49 -24 52 -20 7
6 -14 26 -48 45 -8 5 -12 11 -8 15 3 3 29 -5 57 -19 81 -41 60 -10 -25 38 -1
1 -11 78 -23 171 -30 235 -22 215 -81 215 -49 0 -49 -1 -45 -27z" fill="black"/>
<path d="M1321 1253 c-7 -59 -15 -119 -18 -135 -5 -28 -5 -28 46 -28 34 0 51
4 51 13 0 6 9 67 19 135 l18 122 -52 0 -51 0 -13 -107z" fill="black"/>
<path d="M1564 1333 c-4 -16 -19 -74 -34 -130 l-28 -103 39 0 39 0 0 51 c0 55
13 89 35 89 21 0 29 -19 35 -80 5 -55 5 -55 42 -58 l36 -3 -27 103 c-16 57
-31 115 -35 131 -6 24 -11 27 -51 27 -40 0 -45 -3 -51 -27z" fill="black"/>
<path d="M1890 1225 l0 -135 36 0 c35 0 35 -1 32 -37 -3 -33 -7 -39 -35 -47
l-33 -9 1 -71 c0 -39 3 -64 6 -56 12 33 42 50 88 50 25 0 45 -4 45 -10 0 -5
18 -10 39 -10 25 0 41 -5 45 -15 6 -16 69 -21 113 -9 22 6 22 7 7 42 -14 35
-14 36 21 72 l35 36 0 130 0 130 -38 37 -38 37 -162 0 -162 0 0 -135z m300
-60 l0 -105 -100 0 -100 0 0 105 0 105 100 0 100 0 0 -105z" fill="black"/>
<path d="M1075 1213 c-10 -54 -23 -128 -30 -165 -7 -37 -10 -66 -6 -66 3 1 20
-6 38 -15 51 -27 56 -24 49 37 -7 49 -5 55 13 61 17 5 21 15 21 46 0 34 -3 39
-22 39 -13 0 -30 5 -38 10 -12 8 -9 10 13 10 43 0 67 32 67 90 l0 50 -44 0
-44 0 -17 -97z" fill="black"/>
<path d="M1200 1258 c1 -49 22 -100 35 -86 9 8 -17 138 -27 138 -4 0 -8 -24
-8 -52z" fill="black"/>
<path d="M1210 1116 c0 -25 6 -38 27 -51 l26 -17 -6 38 c-4 22 -7 45 -7 52 0
6 -9 12 -20 12 -16 0 -20 -7 -20 -34z" fill="black"/>
<path d="M648 1100 c-16 -38 -19 -40 -59 -40 l-43 0 32 -33 c28 -28 31 -37 25
-70 l-6 -38 33 20 c33 20 34 20 70 1 l38 -19 -9 37 c-7 33 -5 40 23 70 l32 32
-40 0 c-37 0 -42 3 -60 40 l-19 40 -17 -40z" fill="black"/>
<path d="M2508 1101 c-16 -39 -18 -41 -59 -41 l-43 0 32 -33 c28 -28 31 -37
25 -70 l-6 -38 33 20 c33 20 34 20 70 1 l38 -19 -9 37 c-7 33 -5 40 23 70 l32
32 -40 0 c-37 0 -42 3 -60 41 l-20 41 -16 -41z" fill="black"/>
<path d="M1456 917 c-8 -29 -20 -72 -26 -97 -6 -25 -13 -53 -16 -62 -5 -15 2
-18 39 -18 36 0 46 4 50 19 3 12 20 24 46 32 l40 12 -6 61 c-3 34 -9 65 -13
69 -4 4 -28 14 -53 22 l-46 14 -15 -52z" fill="black"/>
<path d="M1707 953 c-54 -16 -54 -16 -60 -94 l-3 -57 39 -12 c24 -7 41 -19 44
-31 4 -15 14 -19 50 -19 42 0 45 2 39 23 -3 12 -16 60 -28 107 -11 47 -24 88
-27 91 -3 4 -28 0 -54 -8z" fill="black"/>
<path d="M1939 837 c-22 -17 -10 -52 19 -53 14 0 21 4 18 11 -2 7 1 18 7 24 8
8 7 11 -5 11 -9 0 -18 4 -20 9 -2 5 -10 4 -19 -2z" fill="black"/>
<path d="M2216 825 c-15 -8 -34 -15 -42 -15 -19 0 -27 -18 -20 -46 6 -23 10
-24 80 -24 l74 0 -21 50 c-23 55 -28 57 -71 35z" fill="black"/>
<path d="M450 620 c0 -29 1 -30 50 -30 l50 0 0 -165 0 -165 35 0 35 0 0 165 0
165 48 0 c46 0 47 1 47 30 l0 30 -132 0 -133 0 0 -30z" fill="black"/>
<path d="M790 456 l0 -194 30 -4 30 -5 0 84 0 83 70 0 70 0 0 -82 0 -83 30 0
30 0 0 198 0 197 -30 0 -30 0 0 -85 0 -85 -70 0 -70 0 0 85 0 85 -30 0 -30 0
0 -194z" fill="black"/>
<path d="M1120 487 l0 -163 33 -31 c29 -28 39 -32 100 -34 65 -2 69 -1 102 31
l35 34 0 163 0 163 -30 0 -30 0 0 -146 c0 -81 -5 -154 -10 -165 -8 -15 -21
-19 -58 -19 -27 0 -53 5 -60 12 -8 8 -12 59 -12 165 l0 153 -35 0 -35 0 0
-163z" fill="black"/>
<path d="M1460 453 l0 -199 28 1 27 0 5 129 5 129 67 -130 c66 -127 68 -130
98 -125 l30 4 0 194 0 194 -30 0 -29 0 -3 -127 -3 -128 -65 125 c-61 118 -67
125 -97 128 l-33 3 0 -198z" fill="black"/>
<path d="M1790 456 l0 -195 98 -3 97 -3 38 34 37 33 0 132 0 132 -33 32 c-33
32 -34 32 -135 32 l-102 0 0 -194z m192 117 c15 -14 18 -32 18 -123 0 -69 -4
-110 -12 -118 -7 -7 -38 -12 -70 -12 l-58 0 0 135 0 135 52 0 c34 0 58 -6 70
-17z" fill="black"/>
<path d="M2130 453 l0 -198 130 3 130 3 0 30 0 29 -100 0 -100 0 0 50 0 50 50
0 c49 0 50 1 50 30 0 29 -1 30 -50 30 l-50 0 0 55 0 55 100 0 100 0 0 30 0 30
-130 0 -130 0 0 -197z" fill="black"/>
<path d="M2470 455 l0 -195 30 0 30 0 0 81 0 80 31 -3 c28 -3 34 -10 65 -84
34 -77 36 -80 64 -76 17 2 30 6 30 8 0 3 -14 39 -32 81 l-32 76 37 33 c33 30
37 40 37 82 0 41 -5 53 -33 80 -32 32 -34 32 -130 32 l-97 0 0 -195z m182 118
c22 -20 23 -51 1 -75 -12 -13 -30 -18 -70 -18 l-53 0 0 55 0 55 52 0 c34 0 58
-6 70 -17z" fill="black"/>
</g>
</svg>
